<svg width="86" height="41" viewBox="0 0 86 41" fill="none" xmlns="http://www.w3.org/2000/svg">
<path d="M32.7919 11.5312C29.7716 11.5312 27.3985 12.1718 25.2411 14.7343V0.213501H18.9848V35.4479H13.3756C11.2183 35.4479 10.1396 34.1666 10.1396 32.0312V17.0833H15.533V11.9583H10.1396V3.41663H4.09898V12.1718H0V17.0833H4.09898V32.4583C4.09898 36.5156 6.68782 40.3593 12.0812 40.3593H19.2005H21.3579H25.2411V37.3697C27.3985 39.9322 29.7716 40.3593 32.7919 40.3593C35.8122 40.3593 38.1853 39.7187 39.9112 38.2239C42.9315 35.2343 43.1472 30.3229 43.1472 26.052C43.1472 21.7812 42.7157 16.8697 39.9112 13.8802C38.1853 12.3854 35.5964 11.5312 32.7919 11.5312ZM31.2817 35.6614C26.1041 35.6614 25.2411 31.177 25.2411 26.052C25.2411 20.927 26.1041 16.6562 31.2817 16.6562C36.4594 16.6562 37.3223 21.1406 37.3223 26.052C37.3223 30.9635 36.4594 35.6614 31.2817 35.6614Z" fill="#3C3C3B"/>
<path d="M45.7361 35.4479C44.4416 35.4479 43.1472 36.5156 43.1472 37.7968C43.1472 39.0781 44.2259 40.3593 45.7361 40.3593C47.0305 40.3593 48.3249 39.2916 48.3249 37.7968C48.3249 36.302 47.0305 35.4479 45.7361 35.4479Z" fill="#3C3C3B"/>
<path d="M72.0557 21.5677H71.84C71.6243 21.3541 71.6243 21.1406 71.6243 20.927L77.4491 11.9583C77.6649 11.7448 77.8806 11.7448 78.0963 11.7448C78.3121 11.9583 78.3121 12.1718 78.3121 12.3854L72.4872 21.3541C72.2715 21.5677 72.2715 21.5677 72.0557 21.5677Z" fill="#3AAA35"/>
<path d="M73.7818 24.1302H73.5661C73.3503 23.9166 73.3503 23.7031 73.3503 23.4895L80.9011 11.9583C81.1168 11.7448 81.3326 11.7448 81.5483 11.7448C81.764 11.9583 81.7641 12.1718 81.7641 12.3854L74.2133 23.9166C73.9976 24.1302 73.7818 24.1302 73.7818 24.1302Z" fill="#3AAA35"/>
<path d="M75.2918 26.6927H75.0761C74.8603 26.4791 74.8604 26.2656 74.8604 26.052L84.137 11.9583C84.3527 11.7448 84.5685 11.7448 84.7842 11.7448C84.9999 11.9583 84.9999 12.1718 84.9999 12.3854L75.7233 26.4791C75.7233 26.6927 75.5076 26.6927 75.2918 26.6927Z" fill="#3AAA35"/>
<path d="M84.5686 41C84.3529 41 84.3529 41 84.1371 40.7865L65.7996 12.3854C65.5838 12.1719 65.7996 11.9584 66.0153 11.7448C66.231 11.5313 66.4468 11.7448 66.6625 11.9584L85.0001 40.3594C85.2158 40.5729 85.0001 40.7865 84.7843 41H84.5686Z" fill="#3AAA35"/>
<path d="M81.3325 41C81.1168 41 81.1168 41 80.901 40.7865L62.5635 12.3854C62.3477 12.1719 62.5635 11.9584 62.7792 11.7448C62.995 11.5313 63.2107 11.7448 63.4264 11.9584L81.764 40.3594C81.9797 40.5729 81.764 40.7865 81.5483 41C81.3325 41 81.3325 41 81.3325 41Z" fill="#3AAA35"/>
<path d="M77.8806 41C77.6649 41 77.6649 41 77.4491 40.7865L59.1116 12.3854C58.8958 12.1719 59.1116 11.9584 59.3273 11.7448C59.5431 11.5313 59.7588 11.7448 59.9745 11.9584L78.3121 40.3594C78.5278 40.5729 78.3121 40.7865 78.0963 41C78.0963 41 78.0963 41 77.8806 41Z" fill="#3AAA35"/>
<path d="M62.5635 36.3021H58.0331C56.0915 36.3021 54.5813 34.8073 54.5813 32.8854V0.427083C54.5813 0.213542 54.797 0 55.0128 0C55.2285 0 55.4442 0.213542 55.4442 0.427083V32.8854C55.4442 34.3802 56.5229 35.4479 58.0331 35.4479H62.3478L68.3884 26.2656C68.6041 26.0521 68.8199 26.0521 69.0356 26.0521C69.2514 26.2656 69.2513 26.4792 69.2513 26.6927L63.2107 36.0885C62.995 36.0885 62.7793 36.3021 62.5635 36.3021Z" fill="#3AAA35"/>
<path d="M64.2893 38.651H57.6015C54.3654 38.651 51.7766 36.0885 51.7766 32.8854V0.427083C51.7766 0.213542 51.9923 0 52.2081 0C52.4238 0 52.6396 0.213542 52.6396 0.427083V32.8854C52.6396 35.6615 54.7969 37.7969 57.6015 37.7969H64.0736L69.8984 28.8281C70.1142 28.6146 70.3299 28.6146 70.5456 28.6146C70.7614 28.8281 70.7614 29.0417 70.7614 29.2552L64.7208 38.4375C64.7208 38.4375 64.505 38.651 64.2893 38.651Z" fill="#3AAA35"/>
<path d="M57.1701 41C52.6397 41 48.9722 37.3698 48.9722 32.8854V0.427083C48.9722 0.213542 49.1879 0 49.4036 0C49.6194 0 49.8351 0.213542 49.8351 0.427083V32.8854C49.8351 36.9427 53.0712 40.1458 57.1701 40.1458H65.7996L71.4087 31.3906C71.6244 31.1771 71.8402 31.1771 72.0559 31.1771C72.2717 31.3906 72.2717 31.6042 72.2717 31.8177L66.4468 40.7865C66.4468 41 66.2311 41 66.0153 41H57.1701Z" fill="#3AAA35"/>
</svg>
