<svg xmlns="http://www.w3.org/2000/svg" viewBox="0 0 39.39 19.19"><defs><style>.cls-1{fill:#fff;}.cls-2{fill:#3aaa35;}</style></defs><title>Asset 12</title><g id="Layer_2" data-name="Layer 2"><g id="Ebene_1" data-name="Ebene 1"><path class="cls-1" d="M15.18,5.36a4.17,4.17,0,0,0-3.52,1.51V.09H8.83V16.64H6.16a1.36,1.36,0,0,1-1.48-1.56V8H7.15V5.64H4.68v-4H1.86V5.64H0V8H1.86v7.21a3.49,3.49,0,0,0,3.68,3.73h6.07V17.51a4,4,0,0,0,3.54,1.43,4.6,4.6,0,0,0,3.29-1C19.79,16.56,20,14.26,20,12.22s-.16-4.32-1.51-5.67A4.57,4.57,0,0,0,15.18,5.36Zm-.71,11.33c-2.44,0-2.81-2.09-2.81-4.47S12,7.77,14.47,7.77s2.78,2.07,2.78,4.45S16.91,16.69,14.47,16.69Z"/><path class="cls-1" d="M21.17,16.64a1.15,1.15,0,1,0,1.16,1.14A1.15,1.15,0,0,0,21.17,16.64Z"/><path class="cls-2" d="M33.42,10.09a.15.15,0,0,1-.11,0,.19.19,0,0,1-.06-.27l2.69-4.22a.21.21,0,0,1,.28-.06.21.21,0,0,1,.06.28L33.59,10A.22.22,0,0,1,33.42,10.09Z"/><path class="cls-2" d="M34.18,11.3a.17.17,0,0,1-.11,0A.2.2,0,0,1,34,11l3.47-5.43a.21.21,0,0,1,.28-.06.21.21,0,0,1,.06.28L34.35,11.2A.21.21,0,0,1,34.18,11.3Z"/><path class="cls-2" d="M34.94,12.52a.2.2,0,0,1-.11,0,.21.21,0,0,1-.06-.28L39,5.57a.2.2,0,0,1,.28-.06.19.19,0,0,1,.06.27l-4.25,6.64A.22.22,0,0,1,34.94,12.52Z"/><path class="cls-2" d="M39.19,19.18a.21.21,0,0,1-.17-.09L30.52,5.78a.2.2,0,0,1,.06-.28.2.2,0,0,1,.27.06l8.51,13.32a.2.2,0,0,1-.06.27A.2.2,0,0,1,39.19,19.18Z"/><path class="cls-2" d="M37.66,19.19a.21.21,0,0,1-.17-.1L29,5.78A.2.2,0,0,1,29,5.5a.2.2,0,0,1,.27.06l8.52,13.32a.2.2,0,0,1-.07.27A.14.14,0,0,1,37.66,19.19Z"/><path class="cls-2" d="M36.12,19.18a.19.19,0,0,1-.16-.09L27.43,5.78a.2.2,0,0,1,.06-.27.2.2,0,0,1,.28.06l8.52,13.31a.19.19,0,0,1-.06.27A.2.2,0,0,1,36.12,19.18Z"/><path class="cls-2" d="M29,17H26.93a1.61,1.61,0,0,1-1.57-1.59h0V.2a.2.2,0,0,1,.4,0V15.36a1.2,1.2,0,0,0,1.2,1.2h2l2.75-4.32a.2.2,0,0,1,.34.22l-2.82,4.41A.21.21,0,0,1,29,17Z"/><path class="cls-2" d="M29.85,18.08H26.74A2.72,2.72,0,0,1,24,15.4h0V.2a.2.2,0,0,1,.4,0V15.36a2.32,2.32,0,0,0,2.31,2.32h3l2.7-4.23a.2.2,0,0,1,.27-.06.2.2,0,0,1,.06.28L30,18A.21.21,0,0,1,29.85,18.08Z"/><path class="cls-2" d="M26.53,19.19a3.84,3.84,0,0,1-3.84-3.83V.2a.2.2,0,0,1,.4,0V15.41a3.43,3.43,0,0,0,3.41,3.38h4.05l2.65-4.13a.2.2,0,0,1,.28-.06.2.2,0,0,1,.06.27L30.83,19.1a.2.2,0,0,1-.17.09H26.53Z"/></g></g></svg>